<?xml version="1.0" encoding="utf-8"?>
<!-- Generator: Adobe Illustrator 26.0.1, SVG Export Plug-In . SVG Version: 6.00 Build 0)  -->
<svg version="1.1" id="Layer_1" xmlns="http://www.w3.org/2000/svg" xmlns:xlink="http://www.w3.org/1999/xlink" x="0px" y="0px"
	 viewBox="0 0 100 100" style="enable-background:new 0 0 100 100;" xml:space="preserve">
<style type="text/css">
	.st0{fill:none;stroke:#DC0047;stroke-width:1.6027;stroke-linecap:round;stroke-linejoin:round;stroke-miterlimit:10;}
	.st1{enable-background:new    ;}
	.st2{fill:#DC0047;}
</style>
<path id="XMLID_492_" class="st0" d="M48.9,66.9c-0.7-0.1-1.3-0.2-2-0.3C37.9,64.8,32.1,56,34,47s10.7-14.8,19.7-12.9
	c5.6,1.2,9.9,4.9,11.9,9.8"/>
<path id="XMLID_556_" class="st0" d="M55.7,50c0,3-2.4,5.4-5.4,5.4S44.9,53,44.9,50s2.4-5.4,5.4-5.4"/>
<g id="XMLID_549_">
	<path id="XMLID_553_" class="st0" d="M53.7,80.3c-0.7,0-1.5,0-2.2,0c-7.8,0-14-1.4-17.8-2.5c-16.8-5.2-27-17-31.6-23.6"/>
	<path id="XMLID_552_" class="st0" d="M4.5,42.8l0.2-0.2c9.5-14.1,25.5-22.9,41.6-22.9c4.3,0,8.6,0.6,12.7,1.8
		C67.5,24,74.7,28.7,80.6,33c0.2,0.1,0.4,0.3,0.8,0.6c10,7.3,14,9.9,15.6,10.8"/>
	<path id="XMLID_550_" class="st0" d="M53.7,74c-0.7,0-1.5,0-2.2,0c-8.3,0-14.3-1.8-15.9-2.3C19.8,66.9,10.7,55.5,7.2,50.6
		c-0.3-0.4,2.4-4.1,2.7-4.4C20.2,31,39.1,22.3,57.3,27.6C64.5,29.7,71,33.8,77,38.2c1.4,1,12.7,9.4,17.1,11.8c0.8,0.4,1,1.5,0.5,2.2
		s-1.2,1.5-1.9,2.4"/>
</g>
<circle class="st0" cx="75.5" cy="69.2" r="19.8"/>
<g class="st1">
	<path class="st2" d="M65.5,64.9h-3.8c-0.4,0-0.6-0.2-0.6-0.6v-0.4c0-0.4,0.2-0.6,0.6-0.6h9.3c0.4,0,0.6,0.2,0.6,0.6v0.4
		c0,0.4-0.2,0.6-0.6,0.6h-3.8v10.6c0,0.4-0.2,0.6-0.6,0.6h-0.6c-0.4,0-0.6-0.2-0.6-0.6V64.9z"/>
	<path class="st2" d="M70.9,71.5c0-0.7,0.1-1.3,0.4-1.9s0.6-1.1,1-1.5c0.4-0.4,1-0.8,1.5-1c0.6-0.2,1.2-0.4,1.9-0.4
		c0.7,0,1.3,0.1,1.9,0.4c0.6,0.2,1.1,0.6,1.6,1c0.4,0.4,0.8,0.9,1.1,1.5s0.4,1.2,0.4,1.9c0,0.7-0.1,1.3-0.4,1.9s-0.6,1.1-1.1,1.5
		c-0.4,0.4-1,0.8-1.6,1c-0.6,0.2-1.2,0.4-1.9,0.4c-0.7,0-1.3-0.1-1.9-0.4c-0.6-0.2-1.1-0.6-1.5-1c-0.4-0.4-0.8-0.9-1-1.5
		S70.9,72.2,70.9,71.5z M72.7,71.5c0,0.5,0.1,0.9,0.3,1.3s0.4,0.7,0.7,1s0.6,0.5,1,0.7s0.8,0.2,1.2,0.2c0.4,0,0.8-0.1,1.2-0.2
		s0.7-0.4,1-0.7s0.5-0.6,0.7-1c0.2-0.4,0.2-0.8,0.2-1.3c0-0.5-0.1-0.9-0.2-1.3c-0.2-0.4-0.4-0.7-0.7-1c-0.3-0.3-0.6-0.5-1-0.7
		s-0.8-0.2-1.2-0.2c-0.4,0-0.8,0.1-1.2,0.2s-0.7,0.4-1,0.7c-0.3,0.3-0.5,0.6-0.7,1C72.8,70.6,72.7,71,72.7,71.5z"/>
	<path class="st2" d="M82.6,67.5c0-0.4,0.2-0.6,0.6-0.6h0.5c0.4,0,0.6,0.2,0.6,0.6v1c0,0.1,0,0.2,0,0.3s0,0.2,0,0.2
		c0,0.1,0,0.1,0,0.2h0c0.1-0.3,0.2-0.6,0.4-0.9s0.4-0.5,0.6-0.8c0.2-0.2,0.5-0.4,0.8-0.5s0.6-0.2,1-0.2c0.4,0,0.6,0.2,0.6,0.6V68
		c0,0.4-0.2,0.6-0.6,0.6c-0.4,0-0.8,0.1-1.2,0.3c-0.3,0.2-0.6,0.5-0.8,0.9c-0.2,0.3-0.4,0.7-0.5,1.2c-0.1,0.4-0.2,0.9-0.2,1.3v3.2
		c0,0.4-0.2,0.6-0.6,0.6h-0.6c-0.4,0-0.6-0.2-0.6-0.6V67.5z"/>
</g>
</svg>
